<?xml version="1.0" standalone="no"?><!DOCTYPE svg PUBLIC "-//W3C//DTD SVG 1.1//EN" "http://www.w3.org/Graphics/SVG/1.1/DTD/svg11.dtd"><svg t="1611144643346" class="icon" viewBox="0 0 1024 1024" version="1.1" xmlns="http://www.w3.org/2000/svg" p-id="4206" xmlns:xlink="http://www.w3.org/1999/xlink" width="200" height="200"><defs><style type="text/css"></style></defs><path d="M154.285714 460.571429q-4.571429-10.857143-4.571429-29.714286 0-11.428571 6.285714-28t13.714286-25.714286q-0.571429-12.571429 4.285714-30.285714t12.857143-24.571429q0-79.428571 52.857143-164.857143t124.285714-119.714286q79.428571-37.714286 185.142857-37.714286 76 0 152 31.428571 28 12 51.428571 27.428571t40.571429 32 31.428571 38.857143 24 42.285714 18.571429 48.285714 14.571429 51.142857 12.571429 56l0.571429 2.857143q31.428571 47.428571 31.428571 85.714286 0 8-5.142857 22.857143t-5.142857 21.714286q0 0.571429 0.857143 2t2 2.857143 1.142857 2q44 65.142857 68.857143 122.571429t24.857143 119.142857q0 24.571429-11.142857 57.142857t-31.714286 32.571429q-5.142857 0-11.142857-4.285714t-10.857143-10-10.857143-14.857143-9.142857-15.142857-7.714286-14.857143-5.142857-10q-0.571429-0.571429-1.714286-0.571429l-2.857143 2.285714q-33.714286 88-75.428571 127.428571 11.428571 11.428571 35.142857 22t39.428571 23.714286 20.285714 37.142857q-1.142857 2.285714-2.285714 9.142857t-4 10.285714q-36.571429 55.428571-172.571429 55.428571-30.285714 0-63.142857-5.142857t-56-11.428571-59.714286-17.142857q-8.571429-2.857143-13.142857-4-8-2.285714-26.285714-2.571429t-22.857143-0.857143q-23.428571 25.714286-72.857143 37.142857t-96.285714 11.428571q-20 0-39.428571-0.857143t-53.142857-5.142857-57.714286-11.714286-42.571429-22.857143-18.571429-36.571429q0-22.857143 5.714286-34t23.428571-27.714286q6.285714-1.142857 23.142857-7.428571t28.285714-6.857143q2.285714 0 8-1.142857 1.142857-1.142857 1.142857-2.285714l-1.142857-1.714286q-27.428571-6.285714-61.714286-60.285714t-41.714286-89.428571l-2.857143-1.714286q-2.285714 0-6.857143 11.428571-10.285714 23.428571-31.142857 42.571429t-44.285714 21.428571l-0.571429 0q-2.285714 0-3.428571-2.571429t-2.857143-3.142857q-13.142857-30.857143-13.142857-57.142857 0-157.142857 144-266.285714z" p-id="4207"></path></svg>