<?xml version="1.0" standalone="no"?><!DOCTYPE svg PUBLIC "-//W3C//DTD SVG 1.1//EN" "http://www.w3.org/Graphics/SVG/1.1/DTD/svg11.dtd"><svg t="1611144661537" class="icon" viewBox="0 0 1024 1024" version="1.1" xmlns="http://www.w3.org/2000/svg" p-id="4556" xmlns:xlink="http://www.w3.org/1999/xlink" width="200" height="200"><defs><style type="text/css"></style></defs><path d="M753.755136 657.139c-98.162688-7.774-196.35712-15.548-294.519808-23.321 5.306368-2.592 10.614784-5.181 15.919104-7.772 90.203136-64.772 180.436992-129.563 270.640128-194.335-5.306368 0-10.614784 0-15.921152 0-97.455104-42.083-397.549568-32.699-485.557248 7.772 116.732928 7.774 233.504768 15.547 350.237696 23.321-2.654208 5.181-5.306368 10.365-7.959552 15.546-95.511552 62.179-191.046656 124.381-286.558208 186.562 0 2.592 0 5.18 0 7.773 174.162944 23.443 364.192768 2.403 525.357056-15.547 0 2.592 0 5.182 0 7.773-5.30432 0-10.614784 0-15.919104 0-29.503488 23.218-34.161664 10.548-39.800832 62.188 13.26592 64.771 26.534912 129.563 39.800832 194.333-2.654208 2.595-5.306368 5.182-7.959552 7.773-10.611712 0-21.228544 0-31.84128 0-63.724544-53.829-178.624512-131.244-278.597632-139.921-82.246656 46.638-164.512768 93.285-246.759424 139.921-10.610688-5.179-21.228544-10.365-31.840256-15.545 18.57024-101.045 37.148672-202.121 55.719936-303.164-74.28608-67.363-148.59264-134.744-222.87872-202.107 1.789952-5.242 3.577856-10.483 5.366784-15.724 0.287744-0.844 0.576512-1.688 0.864256-2.531 0.576512-1.688 1.152-3.377 1.728512-5.065 98.162688-12.954 196.356096-25.913 294.518784-38.868 53.061632-93.273 106.138624-186.568 159.199232-279.842 5.306368 0 10.614784 0 15.921152 0 45.101056 95.862 90.217472 191.754 135.319552 287.616 103.467008 10.362 206.968832 20.731 310.436864 31.094 2.656256 5.181 5.306368 10.366 7.959552 15.546-74.285056 72.545-148.59264 145.11-222.877696 217.656C753.755136 631.226 753.755136 644.184 753.755136 657.139z" p-id="4557"></path></svg>