<?xml version="1.0" standalone="no"?><!DOCTYPE svg PUBLIC "-//W3C//DTD SVG 1.1//EN" "http://www.w3.org/Graphics/SVG/1.1/DTD/svg11.dtd"><svg t="1611143680755" class="icon" viewBox="0 0 1024 1024" version="1.1" xmlns="http://www.w3.org/2000/svg" p-id="2645" xmlns:xlink="http://www.w3.org/1999/xlink" width="200" height="200"><defs><style type="text/css"></style></defs><path d="M896.341333 0H127.658667A59.392 59.392 0 0 0 68.266667 59.392V955.733333a68.266667 68.266667 0 0 0 68.266666 68.266667h750.933334a68.266667 68.266667 0 0 0 68.266666-68.266667V59.392A59.392 59.392 0 0 0 896.341333 0zM887.466667 68.266667v640.341333H136.533333V68.266667zM136.533333 955.733333v-178.858666h750.933334V955.733333z m472.746667-49.493333h-194.56a34.133333 34.133333 0 0 1 0-68.266667h194.56a34.133333 34.133333 0 1 1 0 68.266667z" p-id="2646"></path></svg>